<mxfile host="Electron" modified="2024-12-18T05:48:07.564Z" agent="Mozilla/5.0 (Windows NT 10.0; Win64; x64) AppleWebKit/537.36 (KHTML, like Gecko) draw.io/22.0.3 Chrome/114.0.5735.289 Electron/25.8.4 Safari/537.36" etag="ISqK6hJ0W5OCrQsikfck" version="22.0.3" type="device">
  <diagram name="Страница — 1" id="JjhdsHuvtlVm4bm29WxP">
    <mxGraphModel dx="1434" dy="844" grid="1" gridSize="10" guides="1" tooltips="1" connect="1" arrows="1" fold="1" page="1" pageScale="1" pageWidth="827" pageHeight="1169" math="0" shadow="0">
      <root>
        <mxCell id="0" />
        <mxCell id="1" parent="0" />
        <UserObject label="" tags="Фон" id="KYgCUvRAcxGsHSJmtdPv-99">
          <mxCell style="vsdxID=1;fillColor=none;gradientColor=none;strokeColor=none;points=[];labelBackgroundColor=none;rounded=0;html=1;whiteSpace=wrap;" vertex="1" parent="1">
            <mxGeometry x="57" y="100" width="714" height="927" as="geometry" />
          </mxCell>
        </UserObject>
        <mxCell id="KYgCUvRAcxGsHSJmtdPv-100" style="vsdxID=2;fillColor=#000000;gradientColor=none;shape=stencil(nZE9DsIwDIVP4xWliRiYS7kAJ4iIIRYhqdxQfk5PWhepdGBoJvu9z7b0AqbuvG0RtOoypys+yGUPZg9aU/TIlEsFpgFTnxPjhdM9OulbW0itRgWdzFQDrZXl05HeOGnVZvfztgLJllvqh+tPYZVYr2lSSX8QNFCcoV9zFfwHXQkuzpdizEeSoxAk3rm/zLNI8hem+QA=);strokeColor=#000000;points=[[0.5,1,0],[0.5,0,0],[0,0.5,0],[1,0.5,0]];labelBackgroundColor=none;rounded=1;html=1;whiteSpace=wrap;" vertex="1" parent="KYgCUvRAcxGsHSJmtdPv-99">
          <mxGeometry width="714" height="927" as="geometry" />
        </mxCell>
        <mxCell id="KYgCUvRAcxGsHSJmtdPv-101" value="&lt;div style=&quot;font-size: 1px&quot;&gt;&lt;p style=&quot;text-align:center;margin-left:0;margin-right:0;margin-top:0px;margin-bottom:0px;text-indent:0;vertical-align:middle;direction:ltr;&quot;&gt;&lt;font style=&quot;font-size:16.93px;font-family:Calibri;color:#ffffff;direction:ltr;letter-spacing:0px;line-height:120%;opacity:1&quot;&gt;&lt;b&gt;Программа&lt;br&gt;&lt;/b&gt;&lt;/font&gt;&lt;/p&gt;&lt;/div&gt;" style="verticalAlign=middle;align=center;overflow=width;vsdxID=3;fillColor=#000000;gradientColor=none;shape=stencil(tZFLDsIwDERP4y1KE7FgXcoFOEFEDbEISZWG7+lJO0UCVqgSWdkzz/kNmbp3tmPSqs8pHvkqbXZk1qS1BMdJcqnINGTqfUx8SPEcWvSdLaRWo8ItZqqB1sqm3VYePGnVYvWxloCwyylehtNvYBWs+zSp0G+Aegnz0Jf5f/jn+859WCnGf0ci4j1ie/e/cyoSMjbNEw==);strokeColor=#000000;points=[];labelBackgroundColor=none;rounded=1;html=1;whiteSpace=wrap;" vertex="1" parent="KYgCUvRAcxGsHSJmtdPv-99">
          <mxGeometry width="714" height="31" as="geometry" />
        </mxCell>
        <mxCell id="KYgCUvRAcxGsHSJmtdPv-102" style="vsdxID=4;fillColor=#ffffff;gradientColor=none;shape=stencil(tZFNEsIgDIVPk61DYVy4rvUCnoCRKBkROinWn9NLmzpTu3SUVfLelzDwwNSdty2CVl3mdMYbuezBbEFrih6ZcqnANGDqY2I8cbpGJ31rC6nVqKCTmWqgtbJ82NMTJ61abT7OWiDZckn9cPtdWCXWY5pU0u8EDRRn6Nv8Cv4N+m9w8aRSjH8uaVAIEtncX2ZUJMnXNC8=);strokeColor=#000000;points=[];labelBackgroundColor=none;rounded=1;html=1;whiteSpace=wrap;" vertex="1" parent="KYgCUvRAcxGsHSJmtdPv-99">
          <mxGeometry y="31" width="714" height="895" as="geometry" />
        </mxCell>
        <mxCell id="KYgCUvRAcxGsHSJmtdPv-104" style="vsdxID=6;fillColor=#000000;gradientColor=none;shape=stencil(xVPbCsMgDP0aHwWn9GHPXfcfstpW5mqJbm3/vkpkF+kGG4y+JTkn8SQHiShdJwdFOHMe7FmNuvYdEQfCue47BdqHiIiKiLKxoFqw177GfJCRGaOLvcUJE/btWGzhbMa0wPSIVAmnAEGi8kSF+TVP8H51EpuonLSjYL302vYIJsxIaBUNr9DGyDYJQsiNSg1P5d91rW/4F10heNy50cagTXf8nQlfeFBkuxbZrpuZ8FnYRh5k9w9B/i9CCf+UqBY=);strokeColor=#000000;points=[[0.5,1,0],[0.5,0,0],[0,0.5,0],[1,0.5,0]];labelBackgroundColor=none;rounded=0;html=1;whiteSpace=wrap;" vertex="1" parent="KYgCUvRAcxGsHSJmtdPv-99">
          <mxGeometry x="328" y="679" width="48" height="50" as="geometry" />
        </mxCell>
        <UserObject label="" tags="Фон" id="KYgCUvRAcxGsHSJmtdPv-115">
          <mxCell style="vsdxID=43;fillColor=#000000;gradientColor=none;shape=stencil(nZE9DsIwDIVP4xWliRiYS7kAJ4iIIRYhqdxQfk5PWhepdGBoJvu9z7b0AqbuvG0RtOoypys+yGUPZg9aU/TIlEsFpgFTnxPjhdM9OulbW0itRgWdzFQDrZXl05HeOGnVZvfztgLJllvqh+tPYZVYr2lSSX8QNFCcoV9zFfwHXQkuzpdizEeSoxAk3rm/zLNI8hem+QA=);strokeColor=#000000;points=[[0.5,0,0],[0.5,0.5,0],[1,0.5,0]];labelBackgroundColor=none;rounded=1;html=1;whiteSpace=wrap;" vertex="1" parent="KYgCUvRAcxGsHSJmtdPv-99">
            <mxGeometry y="384" width="146" height="63" as="geometry" />
          </mxCell>
        </UserObject>
        <mxCell id="KYgCUvRAcxGsHSJmtdPv-116" value="&lt;div style=&quot;font-size: 1px&quot;&gt;&lt;font style=&quot;font-size:16.93px;font-family:Calibri;color:#ffffff;direction:ltr;letter-spacing:0px;line-height:120%;opacity:1&quot;&gt;&lt;b&gt;Построить&lt;br&gt;&lt;/b&gt;&lt;/font&gt;&lt;/div&gt;" style="verticalAlign=middle;align=center;overflow=width;vsdxID=44;fillColor=#000000;gradientColor=none;shape=stencil(tZFLDsIwDERP4y1KE7FgXcoFOEFEDbEISZWG7+lJO0UCVqgSWdkzz/kNmbp3tmPSqs8pHvkqbXZk1qS1BMdJcqnINGTqfUx8SPEcWvSdLaRWo8ItZqqB1sqm3VYePGnVYvWxloCwyylehtNvYBWs+zSp0G+Aegnz0Jf5f/jn+859WCnGf0ci4j1ie/e/cyoSMjbNEw==);strokeColor=#000000;points=[[0.5,1,0],[0.5,0,0],[0,0.5,0],[1,0.5,0]];labelBackgroundColor=none;rounded=1;html=1;whiteSpace=wrap;" vertex="1" parent="KYgCUvRAcxGsHSJmtdPv-115">
          <mxGeometry width="146" height="31" as="geometry" />
        </mxCell>
        <mxCell id="KYgCUvRAcxGsHSJmtdPv-117" value="&lt;div style=&quot;font-size: 1px&quot;&gt;&lt;p style=&quot;text-align:center;margin-left:0;margin-right:0;margin-top:0px;margin-bottom:0px;text-indent:0;vertical-align:middle;direction:ltr;&quot;&gt;&lt;font style=&quot;font-size:16.93px;font-family:Calibri;color:#000000;direction:ltr;letter-spacing:0px;line-height:120%;opacity:1&quot;&gt;Построение&amp;nbsp;&lt;br&gt;&lt;/font&gt;&lt;/p&gt;&lt;/div&gt;" style="verticalAlign=middle;align=center;overflow=width;vsdxID=45;fillColor=#ffffff;gradientColor=none;shape=stencil(tZFNEsIgDIVPk61DYVy4rvUCnoCRKBkROinWn9NLmzpTu3SUVfLelzDwwNSdty2CVl3mdMYbuezBbEFrih6ZcqnANGDqY2I8cbpGJ31rC6nVqKCTmWqgtbJ82NMTJ61abT7OWiDZckn9cPtdWCXWY5pU0u8EDRRn6Nv8Cv4N+m9w8aRSjH8uaVAIEtncX2ZUJMnXNC8=);strokeColor=#000000;points=[[0.5,1,0],[0.5,0,0],[0,0.5,0],[1,0.5,0]];labelBackgroundColor=none;rounded=1;html=1;whiteSpace=wrap;" vertex="1" parent="KYgCUvRAcxGsHSJmtdPv-115">
          <mxGeometry y="31" width="146" height="31" as="geometry" />
        </mxCell>
        <UserObject label="" tags="Фон" id="KYgCUvRAcxGsHSJmtdPv-118">
          <mxCell style="vsdxID=47;fillColor=#000000;gradientColor=none;shape=stencil(nZE9DsIwDIVP4xWliRiYS7kAJ4iIIRYhqdxQfk5PWhepdGBoJvu9z7b0AqbuvG0RtOoypys+yGUPZg9aU/TIlEsFpgFTnxPjhdM9OulbW0itRgWdzFQDrZXl05HeOGnVZvfztgLJllvqh+tPYZVYr2lSSX8QNFCcoV9zFfwHXQkuzpdizEeSoxAk3rm/zLNI8hem+QA=);strokeColor=#000000;points=[[0.5,0,0],[0.5,0.5,0],[1,0.5,0]];labelBackgroundColor=none;rounded=1;html=1;whiteSpace=wrap;" vertex="1" parent="KYgCUvRAcxGsHSJmtdPv-99">
            <mxGeometry x="187" y="384" width="146" height="63" as="geometry" />
          </mxCell>
        </UserObject>
        <mxCell id="KYgCUvRAcxGsHSJmtdPv-119" value="&lt;div style=&quot;font-size: 1px&quot;&gt;&lt;p style=&quot;text-align:center;margin-left:0;margin-right:0;margin-top:0px;margin-bottom:0px;text-indent:0;vertical-align:middle;direction:ltr;&quot;&gt;&lt;font style=&quot;font-size:16.93px;font-family:Calibri;color:#ffffff;direction:ltr;letter-spacing:0px;line-height:120%;opacity:1&quot;&gt;&lt;b&gt;Стоп&lt;/b&gt;&lt;/font&gt;&lt;font style=&quot;font-size:16.93px;font-family:Themed;color:#ffffff;direction:ltr;letter-spacing:0px;line-height:120%;opacity:1&quot;&gt;&lt;b&gt;&lt;br&gt;&lt;/b&gt;&lt;/font&gt;&lt;/p&gt;&lt;/div&gt;" style="verticalAlign=middle;align=center;overflow=width;vsdxID=48;fillColor=#000000;gradientColor=none;shape=stencil(tZFLDsIwDERP4y1KE7FgXcoFOEFEDbEISZWG7+lJO0UCVqgSWdkzz/kNmbp3tmPSqs8pHvkqbXZk1qS1BMdJcqnINGTqfUx8SPEcWvSdLaRWo8ItZqqB1sqm3VYePGnVYvWxloCwyylehtNvYBWs+zSp0G+Aegnz0Jf5f/jn+859WCnGf0ci4j1ie/e/cyoSMjbNEw==);strokeColor=#000000;points=[[0.5,1,0],[0.5,0,0],[0,0.5,0],[1,0.5,0]];labelBackgroundColor=none;rounded=1;html=1;whiteSpace=wrap;" vertex="1" parent="KYgCUvRAcxGsHSJmtdPv-118">
          <mxGeometry width="146" height="31" as="geometry" />
        </mxCell>
        <mxCell id="KYgCUvRAcxGsHSJmtdPv-120" value="&lt;div style=&quot;font-size: 1px&quot;&gt;&lt;p style=&quot;text-align:center;margin-left:0;margin-right:0;margin-top:0px;margin-bottom:0px;text-indent:0;vertical-align:middle;direction:ltr;&quot;&gt;&lt;font style=&quot;font-size:16.93px;font-family:Calibri;color:#000000;direction:ltr;letter-spacing:0px;line-height:120%;opacity:1&quot;&gt;Остановка графика&lt;br&gt;&lt;/font&gt;&lt;/p&gt;&lt;/div&gt;" style="verticalAlign=middle;align=center;overflow=width;vsdxID=49;fillColor=#ffffff;gradientColor=none;shape=stencil(tZFNEsIgDIVPk61DYVy4rvUCnoCRKBkROinWn9NLmzpTu3SUVfLelzDwwNSdty2CVl3mdMYbuezBbEFrih6ZcqnANGDqY2I8cbpGJ31rC6nVqKCTmWqgtbJ82NMTJ61abT7OWiDZckn9cPtdWCXWY5pU0u8EDRRn6Nv8Cv4N+m9w8aRSjH8uaVAIEtncX2ZUJMnXNC8=);strokeColor=#000000;points=[[0.5,1,0],[0.5,0,0],[0,0.5,0],[1,0.5,0]];labelBackgroundColor=none;rounded=1;html=1;whiteSpace=wrap;" vertex="1" parent="KYgCUvRAcxGsHSJmtdPv-118">
          <mxGeometry y="31" width="146" height="31" as="geometry" />
        </mxCell>
        <UserObject label="" tags="Фон" id="KYgCUvRAcxGsHSJmtdPv-121">
          <mxCell style="vsdxID=51;fillColor=#000000;gradientColor=none;shape=stencil(nZE9DsIwDIVP4xWliRiYS7kAJ4iIIRYhqdxQfk5PWhepdGBoJvu9z7b0AqbuvG0RtOoypys+yGUPZg9aU/TIlEsFpgFTnxPjhdM9OulbW0itRgWdzFQDrZXl05HeOGnVZvfztgLJllvqh+tPYZVYr2lSSX8QNFCcoV9zFfwHXQkuzpdizEeSoxAk3rm/zLNI8hem+QA=);strokeColor=#000000;points=[[0.5,0,0],[0.5,0.5,0],[1,0.5,0]];labelBackgroundColor=none;rounded=1;html=1;whiteSpace=wrap;" vertex="1" parent="KYgCUvRAcxGsHSJmtdPv-99">
            <mxGeometry x="373" y="384" width="146" height="63" as="geometry" />
          </mxCell>
        </UserObject>
        <mxCell id="KYgCUvRAcxGsHSJmtdPv-122" value="&lt;div style=&quot;font-size: 1px&quot;&gt;&lt;p style=&quot;text-align:center;margin-left:0;margin-right:0;margin-top:0px;margin-bottom:0px;text-indent:0;vertical-align:middle;direction:ltr;&quot;&gt;&lt;font style=&quot;font-size:16.93px;font-family:Calibri;color:#ffffff;direction:ltr;letter-spacing:0px;line-height:120%;opacity:1&quot;&gt;&lt;b&gt;Продолжить&lt;/b&gt;&lt;/font&gt;&lt;font style=&quot;font-size:16.93px;font-family:Themed;color:#ffffff;direction:ltr;letter-spacing:0px;line-height:120%;opacity:1&quot;&gt;&lt;b&gt;&lt;br&gt;&lt;/b&gt;&lt;/font&gt;&lt;/p&gt;&lt;/div&gt;" style="verticalAlign=middle;align=center;overflow=width;vsdxID=52;fillColor=#000000;gradientColor=none;shape=stencil(tZFLDsIwDERP4y1KE7FgXcoFOEFEDbEISZWG7+lJO0UCVqgSWdkzz/kNmbp3tmPSqs8pHvkqbXZk1qS1BMdJcqnINGTqfUx8SPEcWvSdLaRWo8ItZqqB1sqm3VYePGnVYvWxloCwyylehtNvYBWs+zSp0G+Aegnz0Jf5f/jn+859WCnGf0ci4j1ie/e/cyoSMjbNEw==);strokeColor=#000000;points=[[0.5,1,0],[0.5,0,0],[0,0.5,0],[1,0.5,0]];labelBackgroundColor=none;rounded=1;html=1;whiteSpace=wrap;" vertex="1" parent="KYgCUvRAcxGsHSJmtdPv-121">
          <mxGeometry width="146" height="31" as="geometry" />
        </mxCell>
        <mxCell id="KYgCUvRAcxGsHSJmtdPv-123" value="&lt;div style=&quot;font-size: 1px&quot;&gt;&lt;p style=&quot;text-align:center;margin-left:0;margin-right:0;margin-top:0px;margin-bottom:0px;text-indent:0;vertical-align:middle;direction:ltr;&quot;&gt;&lt;font style=&quot;font-size:16.93px;font-family:Calibri;color:#000000;direction:ltr;letter-spacing:0px;line-height:120%;opacity:1&quot;&gt;Продолжение&lt;br&gt;&lt;/font&gt;&lt;/p&gt;&lt;/div&gt;" style="verticalAlign=middle;align=center;overflow=width;vsdxID=53;fillColor=#ffffff;gradientColor=none;shape=stencil(tZFNEsIgDIVPk61DYVy4rvUCnoCRKBkROinWn9NLmzpTu3SUVfLelzDwwNSdty2CVl3mdMYbuezBbEFrih6ZcqnANGDqY2I8cbpGJ31rC6nVqKCTmWqgtbJ82NMTJ61abT7OWiDZckn9cPtdWCXWY5pU0u8EDRRn6Nv8Cv4N+m9w8aRSjH8uaVAIEtncX2ZUJMnXNC8=);strokeColor=#000000;points=[[0.5,1,0],[0.5,0,0],[0,0.5,0],[1,0.5,0]];labelBackgroundColor=none;rounded=1;html=1;whiteSpace=wrap;" vertex="1" parent="KYgCUvRAcxGsHSJmtdPv-121">
          <mxGeometry y="31" width="146" height="31" as="geometry" />
        </mxCell>
        <UserObject label="" tags="Фон" id="KYgCUvRAcxGsHSJmtdPv-124">
          <mxCell style="vsdxID=56;fillColor=#000000;gradientColor=none;shape=stencil(nZE9DsIwDIVP4xWliRiYS7kAJ4iIIRYhqdxQfk5PWhepdGBoJvu9z7b0AqbuvG0RtOoypys+yGUPZg9aU/TIlEsFpgFTnxPjhdM9OulbW0itRgWdzFQDrZXl05HeOGnVZvfztgLJllvqh+tPYZVYr2lSSX8QNFCcoV9zFfwHXQkuzpdizEeSoxAk3rm/zLNI8hem+QA=);strokeColor=#000000;points=[[0.5,0,0],[0.5,0.5,0],[1,0.5,0]];labelBackgroundColor=none;rounded=1;html=1;whiteSpace=wrap;" vertex="1" parent="KYgCUvRAcxGsHSJmtdPv-99">
            <mxGeometry x="559" y="384" width="146" height="63" as="geometry" />
          </mxCell>
        </UserObject>
        <mxCell id="KYgCUvRAcxGsHSJmtdPv-125" value="&lt;div style=&quot;font-size: 1px&quot;&gt;&lt;p style=&quot;text-align:center;margin-left:0;margin-right:0;margin-top:0px;margin-bottom:0px;text-indent:0;vertical-align:middle;direction:ltr;&quot;&gt;&lt;font style=&quot;font-size:16.93px;font-family:Calibri;color:#ffffff;direction:ltr;letter-spacing:0px;line-height:120%;opacity:1&quot;&gt;&lt;b&gt;Очистить&lt;/b&gt;&lt;/font&gt;&lt;font style=&quot;font-size:16.93px;font-family:Themed;color:#ffffff;direction:ltr;letter-spacing:0px;line-height:120%;opacity:1&quot;&gt;&lt;b&gt;&lt;br&gt;&lt;/b&gt;&lt;/font&gt;&lt;/p&gt;&lt;/div&gt;" style="verticalAlign=middle;align=center;overflow=width;vsdxID=57;fillColor=#000000;gradientColor=none;shape=stencil(tZFLDsIwDERP4y1KE7FgXcoFOEFEDbEISZWG7+lJO0UCVqgSWdkzz/kNmbp3tmPSqs8pHvkqbXZk1qS1BMdJcqnINGTqfUx8SPEcWvSdLaRWo8ItZqqB1sqm3VYePGnVYvWxloCwyylehtNvYBWs+zSp0G+Aegnz0Jf5f/jn+859WCnGf0ci4j1ie/e/cyoSMjbNEw==);strokeColor=#000000;points=[[0.5,1,0],[0.5,0,0],[0,0.5,0],[1,0.5,0]];labelBackgroundColor=none;rounded=1;html=1;whiteSpace=wrap;" vertex="1" parent="KYgCUvRAcxGsHSJmtdPv-124">
          <mxGeometry width="146" height="31" as="geometry" />
        </mxCell>
        <mxCell id="KYgCUvRAcxGsHSJmtdPv-126" value="&lt;div style=&quot;font-size: 1px&quot;&gt;&lt;p style=&quot;text-align:center;margin-left:0;margin-right:0;margin-top:0px;margin-bottom:0px;text-indent:0;vertical-align:middle;direction:ltr;&quot;&gt;&lt;font style=&quot;font-size:16.93px;font-family:Calibri;color:#000000;direction:ltr;letter-spacing:0px;line-height:120%;opacity:1&quot;&gt;Очистка графика&lt;br&gt;&lt;/font&gt;&lt;/p&gt;&lt;/div&gt;" style="verticalAlign=middle;align=center;overflow=width;vsdxID=58;fillColor=#ffffff;gradientColor=none;shape=stencil(tZFNEsIgDIVPk61DYVy4rvUCnoCRKBkROinWn9NLmzpTu3SUVfLelzDwwNSdty2CVl3mdMYbuezBbEFrih6ZcqnANGDqY2I8cbpGJ31rC6nVqKCTmWqgtbJ82NMTJ61abT7OWiDZckn9cPtdWCXWY5pU0u8EDRRn6Nv8Cv4N+m9w8aRSjH8uaVAIEtncX2ZUJMnXNC8=);strokeColor=#000000;points=[[0.5,1,0],[0.5,0,0],[0,0.5,0],[1,0.5,0]];labelBackgroundColor=none;rounded=1;html=1;whiteSpace=wrap;" vertex="1" parent="KYgCUvRAcxGsHSJmtdPv-124">
          <mxGeometry y="31" width="146" height="31" as="geometry" />
        </mxCell>
        <UserObject label="" tags="Фон" id="KYgCUvRAcxGsHSJmtdPv-127">
          <mxCell style="vsdxID=65;edgeStyle=none;startArrow=none;endArrow=none;startSize=5;endSize=5;strokeColor=#000000;spacingTop=0;spacingBottom=0;spacingLeft=0;spacingRight=0;verticalAlign=middle;html=1;labelBackgroundColor=#ffffff;rounded=0;endFill=0;" edge="1" parent="KYgCUvRAcxGsHSJmtdPv-99">
            <mxGeometry relative="1" as="geometry">
              <Array as="points" />
              <mxPoint x="167" y="420" as="sourcePoint" />
              <mxPoint x="167" y="548" as="targetPoint" />
            </mxGeometry>
          </mxCell>
        </UserObject>
        <UserObject label="" tags="Фон" id="KYgCUvRAcxGsHSJmtdPv-128">
          <mxCell style="vsdxID=66;edgeStyle=none;startArrow=none;endArrow=none;startSize=5;endSize=5;strokeColor=#000000;spacingTop=0;spacingBottom=0;spacingLeft=0;spacingRight=0;verticalAlign=middle;html=1;labelBackgroundColor=#ffffff;rounded=0;endFill=0;" edge="1" parent="KYgCUvRAcxGsHSJmtdPv-99">
            <mxGeometry relative="1" as="geometry">
              <Array as="points" />
              <mxPoint x="355" y="420" as="sourcePoint" />
              <mxPoint x="355" y="548" as="targetPoint" />
            </mxGeometry>
          </mxCell>
        </UserObject>
        <UserObject label="" tags="Фон" id="KYgCUvRAcxGsHSJmtdPv-129">
          <mxCell style="vsdxID=67;edgeStyle=none;startArrow=none;endArrow=none;startSize=5;endSize=5;strokeColor=#000000;spacingTop=0;spacingBottom=0;spacingLeft=0;spacingRight=0;verticalAlign=middle;html=1;labelBackgroundColor=#ffffff;rounded=0;endFill=0;" edge="1" parent="KYgCUvRAcxGsHSJmtdPv-99">
            <mxGeometry relative="1" as="geometry">
              <Array as="points" />
              <mxPoint x="539" y="420" as="sourcePoint" />
              <mxPoint x="539" y="548" as="targetPoint" />
            </mxGeometry>
          </mxCell>
        </UserObject>
        <UserObject label="" tags="Соединительная_линия" id="KYgCUvRAcxGsHSJmtdPv-133">
          <mxCell style="vsdxID=82;edgeStyle=none;startArrow=none;endArrow=block;startSize=5;endSize=5;strokeColor=#000000;spacingTop=0;spacingBottom=0;spacingLeft=0;spacingRight=0;verticalAlign=middle;html=1;labelBackgroundColor=#ffffff;rounded=0;exitX=0.5;exitY=1.0158730158730158;exitDx=0;exitDy=0;exitPerimeter=0;entryX=0.5;entryY=0.02;entryDx=0;entryDy=0;entryPerimeter=0;" edge="1" parent="KYgCUvRAcxGsHSJmtdPv-99" source="KYgCUvRAcxGsHSJmtdPv-124" target="KYgCUvRAcxGsHSJmtdPv-104">
            <mxGeometry relative="1" as="geometry">
              <mxPoint as="offset" />
              <Array as="points">
                <mxPoint x="632" y="654.77" />
                <mxPoint x="352.53999999999996" y="654.77" />
              </Array>
            </mxGeometry>
          </mxCell>
        </UserObject>
        <UserObject label="" tags="Соединительная_линия" id="KYgCUvRAcxGsHSJmtdPv-134">
          <mxCell style="vsdxID=81;edgeStyle=none;startArrow=none;endArrow=block;startSize=5;endSize=5;strokeColor=#000000;spacingTop=0;spacingBottom=0;spacingLeft=0;spacingRight=0;verticalAlign=middle;html=1;labelBackgroundColor=#ffffff;rounded=0;exitX=0.5068493150684932;exitY=1.0158730158730158;exitDx=0;exitDy=0;exitPerimeter=0;entryX=0.5;entryY=0.02;entryDx=0;entryDy=0;entryPerimeter=0;" edge="1" parent="KYgCUvRAcxGsHSJmtdPv-99" source="KYgCUvRAcxGsHSJmtdPv-121" target="KYgCUvRAcxGsHSJmtdPv-104">
            <mxGeometry relative="1" as="geometry">
              <mxPoint as="offset" />
              <Array as="points">
                <mxPoint x="447" y="654.77" />
                <mxPoint x="352.71000000000004" y="654.77" />
              </Array>
            </mxGeometry>
          </mxCell>
        </UserObject>
        <UserObject label="" tags="Соединительная_линия" id="KYgCUvRAcxGsHSJmtdPv-135">
          <mxCell style="vsdxID=80;edgeStyle=none;startArrow=none;endArrow=block;startSize=5;endSize=5;strokeColor=#000000;spacingTop=0;spacingBottom=0;spacingLeft=0;spacingRight=0;verticalAlign=middle;html=1;labelBackgroundColor=#ffffff;rounded=0;exitX=0.5;exitY=1.0158730158730158;exitDx=0;exitDy=0;exitPerimeter=0;entryX=0.5;entryY=0.02;entryDx=0;entryDy=0;entryPerimeter=0;" edge="1" parent="KYgCUvRAcxGsHSJmtdPv-99" source="KYgCUvRAcxGsHSJmtdPv-118" target="KYgCUvRAcxGsHSJmtdPv-104">
            <mxGeometry relative="1" as="geometry">
              <mxPoint as="offset" />
              <Array as="points">
                <mxPoint x="260" y="654.72" />
                <mxPoint x="352.29999999999995" y="654.72" />
              </Array>
            </mxGeometry>
          </mxCell>
        </UserObject>
        <UserObject label="" tags="Соединительная_линия" id="KYgCUvRAcxGsHSJmtdPv-136">
          <mxCell style="vsdxID=79;edgeStyle=none;startArrow=none;endArrow=block;startSize=5;endSize=5;strokeColor=#000000;spacingTop=0;spacingBottom=0;spacingLeft=0;spacingRight=0;verticalAlign=middle;html=1;labelBackgroundColor=#ffffff;rounded=0;exitX=0.5;exitY=1.0158730158730158;exitDx=0;exitDy=0;exitPerimeter=0;entryX=0.5;entryY=0.02;entryDx=0;entryDy=0;entryPerimeter=0;" edge="1" parent="KYgCUvRAcxGsHSJmtdPv-99" source="KYgCUvRAcxGsHSJmtdPv-115" target="KYgCUvRAcxGsHSJmtdPv-104">
            <mxGeometry relative="1" as="geometry">
              <mxPoint x="-1" as="offset" />
              <Array as="points">
                <mxPoint x="73" y="654.64" />
                <mxPoint x="351.89" y="654.64" />
              </Array>
            </mxGeometry>
          </mxCell>
        </UserObject>
        <mxCell id="KYgCUvRAcxGsHSJmtdPv-103" style="vsdxID=5;fillColor=#000000;gradientColor=none;shape=stencil(vVHLDsIgEPwajiQI6RfU+h8bu22JCGRB2/69kG1iazx58DazM/vIjjBtmiCi0CplCjecbZ8nYc5Ca+snJJsLEqYTph0C4Ujh4XvmEaqzont41gkL96naodXKrGF6YSfQtUi0OXXDVlqPfJNP6usotUhYbJIUMmQb/GGrAxpRljVycDBuc1hKM2LclX8/7H9nFfB+82Cd45T2+mcspcSRmu4F);strokeColor=#000000;points=[[0.5,1,0],[0.5,0,0],[0,0.5,0],[1,0.5,0]];labelBackgroundColor=none;rounded=0;html=1;whiteSpace=wrap;" vertex="1" parent="KYgCUvRAcxGsHSJmtdPv-99">
          <mxGeometry x="328" y="45" width="48" height="47" as="geometry" />
        </mxCell>
        <UserObject label="" tags="Фон" id="KYgCUvRAcxGsHSJmtdPv-105">
          <mxCell style="vsdxID=22;rotation=90;fillColor=#000000;gradientColor=none;shape=stencil(UzV2Ls5ILEhVNTIoLinKz04tz0wpyVA1dlE1MsrMy0gtyiwBslSNXVWNndPyi1LTi/JL81Ig/IJEkEoQKze/DGRCBUSfqaWeBUiTkUElREDX2NRQz8AILOYG0ZGTmYdPhykBDYYGBijqYXziTMfiHiAD4Z20zJwcSGjA5XH5lRJnoKlGcQKa9UAGeugDhSAxZ+wKAA==);strokeColor=#000000;points=[[0,1,0],[1,1,0]];labelBackgroundColor=#ffffff;rounded=0;html=1;whiteSpace=wrap;" vertex="1" parent="KYgCUvRAcxGsHSJmtdPv-99">
            <mxGeometry x="341" y="104" width="22" height="1" as="geometry" />
          </mxCell>
        </UserObject>
        <UserObject label="" tags="Фон" id="KYgCUvRAcxGsHSJmtdPv-106">
          <mxCell style="vsdxID=29;fillColor=#000000;gradientColor=none;shape=stencil(nZE9DsIwDIVP4xWliRiYS7kAJ4iIIRYhqdxQfk5PWhepdGBoJvu9z7b0AqbuvG0RtOoypys+yGUPZg9aU/TIlEsFpgFTnxPjhdM9OulbW0itRgWdzFQDrZXl05HeOGnVZvfztgLJllvqh+tPYZVYr2lSSX8QNFCcoV9zFfwHXQkuzpdizEeSoxAk3rm/zLNI8hem+QA=);strokeColor=#000000;points=[[0.5,0,0],[0.5,0.5,0],[1,0.5,0]];labelBackgroundColor=none;rounded=1;html=1;whiteSpace=wrap;" vertex="1" parent="KYgCUvRAcxGsHSJmtdPv-99">
            <mxGeometry x="278" y="116" width="148" height="63" as="geometry" />
          </mxCell>
        </UserObject>
        <mxCell id="KYgCUvRAcxGsHSJmtdPv-107" value="&lt;div style=&quot;font-size: 1px&quot;&gt;&lt;font style=&quot;font-size:16.93px;font-family:Calibri;color:#ffffff;direction:ltr;letter-spacing:0px;line-height:120%;opacity:1&quot;&gt;&lt;b&gt;Программа&lt;br&gt;&lt;/b&gt;&lt;/font&gt;&lt;/div&gt;" style="verticalAlign=middle;align=center;overflow=width;vsdxID=30;fillColor=#000000;gradientColor=none;shape=stencil(tZFLDsIwDERP4y1KE7FgXcoFOEFEDbEISZWG7+lJO0UCVqgSWdkzz/kNmbp3tmPSqs8pHvkqbXZk1qS1BMdJcqnINGTqfUx8SPEcWvSdLaRWo8ItZqqB1sqm3VYePGnVYvWxloCwyylehtNvYBWs+zSp0G+Aegnz0Jf5f/jn+859WCnGf0ci4j1ie/e/cyoSMjbNEw==);strokeColor=#000000;points=[[0.5,1,0],[0.5,0,0],[0,0.5,0],[1,0.5,0]];labelBackgroundColor=none;rounded=1;html=1;whiteSpace=wrap;" vertex="1" parent="KYgCUvRAcxGsHSJmtdPv-106">
          <mxGeometry width="148" height="31" as="geometry" />
        </mxCell>
        <mxCell id="KYgCUvRAcxGsHSJmtdPv-108" value="&lt;div style=&quot;font-size: 1px&quot;&gt;&lt;p style=&quot;text-align:center;margin-left:0;margin-right:0;margin-top:0px;margin-bottom:0px;text-indent:0;vertical-align:middle;direction:ltr;&quot;&gt;&lt;font style=&quot;font-size:16.93px;font-family:Calibri;color:#000000;direction:ltr;letter-spacing:0px;line-height:120%;opacity:1&quot;&gt;Запущена&lt;br&gt;&lt;/font&gt;&lt;/p&gt;&lt;/div&gt;" style="verticalAlign=middle;align=center;overflow=width;vsdxID=31;fillColor=#ffffff;gradientColor=none;shape=stencil(tZFNEsIgDIVPk61DYVy4rvUCnoCRKBkROinWn9NLmzpTu3SUVfLelzDwwNSdty2CVl3mdMYbuezBbEFrih6ZcqnANGDqY2I8cbpGJ31rC6nVqKCTmWqgtbJ82NMTJ61abT7OWiDZckn9cPtdWCXWY5pU0u8EDRRn6Nv8Cv4N+m9w8aRSjH8uaVAIEtncX2ZUJMnXNC8=);strokeColor=#000000;points=[[0.5,1,0],[0.5,0,0],[0,0.5,0],[1,0.5,0]];labelBackgroundColor=none;rounded=1;html=1;whiteSpace=wrap;" vertex="1" parent="KYgCUvRAcxGsHSJmtdPv-106">
          <mxGeometry y="31" width="148" height="31" as="geometry" />
        </mxCell>
        <UserObject label="" tags="Фон" id="KYgCUvRAcxGsHSJmtdPv-109">
          <mxCell style="vsdxID=35;fillColor=#000000;gradientColor=none;shape=stencil(nZE9DsIwDIVP4xWliRiYS7kAJ4iIIRYhqdxQfk5PWhepdGBoJvu9z7b0AqbuvG0RtOoypys+yGUPZg9aU/TIlEsFpgFTnxPjhdM9OulbW0itRgWdzFQDrZXl05HeOGnVZvfztgLJllvqh+tPYZVYr2lSSX8QNFCcoV9zFfwHXQkuzpdizEeSoxAk3rm/zLNI8hem+QA=);strokeColor=#000000;points=[[0.5,0,0],[0.5,0.5,0],[1,0.5,0]];labelBackgroundColor=none;rounded=1;html=1;whiteSpace=wrap;" vertex="1" parent="KYgCUvRAcxGsHSJmtdPv-99">
            <mxGeometry x="278" y="227" width="148" height="63" as="geometry" />
          </mxCell>
        </UserObject>
        <mxCell id="KYgCUvRAcxGsHSJmtdPv-110" value="&lt;div style=&quot;font-size: 1px&quot;&gt;&lt;font style=&quot;font-size:16.93px;font-family:Calibri;color:#ffffff;direction:ltr;letter-spacing:0px;line-height:120%;opacity:1&quot;&gt;&lt;b&gt;Главное окно&lt;br&gt;&lt;/b&gt;&lt;/font&gt;&lt;/div&gt;" style="verticalAlign=middle;align=center;overflow=width;vsdxID=36;fillColor=#000000;gradientColor=none;shape=stencil(tZFLDsIwDERP4y1KE7FgXcoFOEFEDbEISZWG7+lJO0UCVqgSWdkzz/kNmbp3tmPSqs8pHvkqbXZk1qS1BMdJcqnINGTqfUx8SPEcWvSdLaRWo8ItZqqB1sqm3VYePGnVYvWxloCwyylehtNvYBWs+zSp0G+Aegnz0Jf5f/jn+859WCnGf0ci4j1ie/e/cyoSMjbNEw==);strokeColor=#000000;points=[[0.5,1,0],[0.5,0,0],[0,0.5,0],[1,0.5,0]];labelBackgroundColor=none;rounded=1;html=1;whiteSpace=wrap;" vertex="1" parent="KYgCUvRAcxGsHSJmtdPv-109">
          <mxGeometry width="148" height="31" as="geometry" />
        </mxCell>
        <mxCell id="KYgCUvRAcxGsHSJmtdPv-111" value="&lt;div style=&quot;font-size: 1px&quot;&gt;&lt;p style=&quot;text-align:center;margin-left:0;margin-right:0;margin-top:0px;margin-bottom:0px;text-indent:0;vertical-align:middle;direction:ltr;&quot;&gt;&lt;font style=&quot;font-size:16.93px;font-family:Calibri;color:#000000;direction:ltr;letter-spacing:0px;line-height:120%;opacity:1&quot;&gt;Отображается&lt;br&gt;&lt;/font&gt;&lt;/p&gt;&lt;/div&gt;" style="verticalAlign=middle;align=center;overflow=width;vsdxID=37;fillColor=#ffffff;gradientColor=none;shape=stencil(tZFNEsIgDIVPk61DYVy4rvUCnoCRKBkROinWn9NLmzpTu3SUVfLelzDwwNSdty2CVl3mdMYbuezBbEFrih6ZcqnANGDqY2I8cbpGJ31rC6nVqKCTmWqgtbJ82NMTJ61abT7OWiDZckn9cPtdWCXWY5pU0u8EDRRn6Nv8Cv4N+m9w8aRSjH8uaVAIEtncX2ZUJMnXNC8=);strokeColor=#000000;points=[[0.5,1,0],[0.5,0,0],[0,0.5,0],[1,0.5,0]];labelBackgroundColor=none;rounded=1;html=1;whiteSpace=wrap;" vertex="1" parent="KYgCUvRAcxGsHSJmtdPv-109">
          <mxGeometry y="31" width="148" height="31" as="geometry" />
        </mxCell>
        <UserObject label="" tags="Соединительная_линия" id="KYgCUvRAcxGsHSJmtdPv-140">
          <mxCell style="vsdxID=70;edgeStyle=none;startArrow=none;endArrow=block;startSize=5;endSize=5;strokeColor=#000000;spacingTop=0;spacingBottom=0;spacingLeft=0;spacingRight=0;verticalAlign=middle;html=1;labelBackgroundColor=#ffffff;rounded=0;exitX=0.5;exitY=1;exitDx=0;exitDy=0;exitPerimeter=0;entryX=0.5;entryY=0;entryDx=0;entryDy=0;entryPerimeter=0;" edge="1" parent="KYgCUvRAcxGsHSJmtdPv-99" source="KYgCUvRAcxGsHSJmtdPv-111" target="KYgCUvRAcxGsHSJmtdPv-115">
            <mxGeometry relative="1" as="geometry">
              <mxPoint as="offset" />
              <Array as="points">
                <mxPoint x="352" y="355.4" />
                <mxPoint x="73.11000000000001" y="355.4" />
              </Array>
              <mxPoint x="352" y="330.0000000000002" as="sourcePoint" />
            </mxGeometry>
          </mxCell>
        </UserObject>
        <UserObject label="" tags="Соединительная_линия" id="KYgCUvRAcxGsHSJmtdPv-142">
          <mxCell style="vsdxID=68;edgeStyle=none;startArrow=none;endArrow=block;startSize=5;endSize=5;strokeColor=#000000;spacingTop=0;spacingBottom=0;spacingLeft=0;spacingRight=0;verticalAlign=middle;html=1;labelBackgroundColor=#ffffff;rounded=0;exitX=0.5;exitY=1;exitDx=0;exitDy=0;exitPerimeter=0;entryX=0.5;entryY=0;entryDx=0;entryDy=0;entryPerimeter=0;" edge="1" parent="KYgCUvRAcxGsHSJmtdPv-99" source="KYgCUvRAcxGsHSJmtdPv-106" target="KYgCUvRAcxGsHSJmtdPv-109">
            <mxGeometry relative="1" as="geometry">
              <mxPoint x="10" as="offset" />
              <Array as="points" />
            </mxGeometry>
          </mxCell>
        </UserObject>
        <UserObject label="" tags="Соединительная_линия" id="KYgCUvRAcxGsHSJmtdPv-139">
          <mxCell style="vsdxID=73;edgeStyle=none;startArrow=none;endArrow=block;startSize=5;endSize=5;strokeColor=#000000;spacingTop=0;spacingBottom=0;spacingLeft=0;spacingRight=0;verticalAlign=middle;html=1;labelBackgroundColor=#ffffff;rounded=0;exitX=0.5;exitY=1;exitDx=0;exitDy=0;exitPerimeter=0;entryX=0.5;entryY=0;entryDx=0;entryDy=0;entryPerimeter=0;" edge="1" parent="KYgCUvRAcxGsHSJmtdPv-99" source="KYgCUvRAcxGsHSJmtdPv-111" target="KYgCUvRAcxGsHSJmtdPv-118">
            <mxGeometry relative="1" as="geometry">
              <mxPoint x="-1" as="offset" />
              <Array as="points">
                <mxPoint x="352" y="355.4" />
                <mxPoint x="259.7" y="355.4" />
              </Array>
              <mxPoint x="352" y="330.0000000000002" as="sourcePoint" />
            </mxGeometry>
          </mxCell>
        </UserObject>
        <UserObject label="" tags="Соединительная_линия" id="KYgCUvRAcxGsHSJmtdPv-138">
          <mxCell style="vsdxID=74;edgeStyle=none;startArrow=none;endArrow=block;startSize=5;endSize=5;strokeColor=#000000;spacingTop=0;spacingBottom=0;spacingLeft=0;spacingRight=0;verticalAlign=middle;html=1;labelBackgroundColor=#ffffff;rounded=0;exitX=0.5;exitY=1;exitDx=0;exitDy=0;exitPerimeter=0;entryX=0.5068493150684932;entryY=0;entryDx=0;entryDy=0;entryPerimeter=0;" edge="1" parent="KYgCUvRAcxGsHSJmtdPv-99" source="KYgCUvRAcxGsHSJmtdPv-111" target="KYgCUvRAcxGsHSJmtdPv-121">
            <mxGeometry relative="1" as="geometry">
              <mxPoint as="offset" />
              <Array as="points">
                <mxPoint x="352" y="355.4" />
                <mxPoint x="446.28999999999996" y="355.4" />
              </Array>
              <mxPoint x="352" y="330.0000000000002" as="sourcePoint" />
            </mxGeometry>
          </mxCell>
        </UserObject>
        <UserObject label="" tags="Соединительная_линия" id="KYgCUvRAcxGsHSJmtdPv-137">
          <mxCell style="vsdxID=78;edgeStyle=none;startArrow=none;endArrow=block;startSize=5;endSize=5;strokeColor=#000000;spacingTop=0;spacingBottom=0;spacingLeft=0;spacingRight=0;verticalAlign=middle;html=1;labelBackgroundColor=#ffffff;rounded=0;exitX=0.499;exitY=1.002;exitDx=0;exitDy=0;exitPerimeter=0;entryX=0.5;entryY=0;entryDx=0;entryDy=0;entryPerimeter=0;" edge="1" parent="KYgCUvRAcxGsHSJmtdPv-99" source="KYgCUvRAcxGsHSJmtdPv-109" target="KYgCUvRAcxGsHSJmtdPv-124">
            <mxGeometry relative="1" as="geometry">
              <mxPoint x="-1" as="offset" />
              <Array as="points">
                <mxPoint x="352" y="355.4" />
                <mxPoint x="631.46" y="355.4" />
              </Array>
              <mxPoint x="352" y="330.0000000000002" as="sourcePoint" />
            </mxGeometry>
          </mxCell>
        </UserObject>
      </root>
    </mxGraphModel>
  </diagram>
</mxfile>
